<?xml version="1.0" encoding="UTF-8"?>
<svg id="Warstwa_2" data-name="Warstwa 2" xmlns="http://www.w3.org/2000/svg" viewBox="0 0 252.2 77.3">
  <defs>
    <style>
      .cls-1 {
        fill-rule: evenodd;
      }

      .cls-1, .cls-2 {
        fill: #006071;
        stroke-width: 0px;
      }
    </style>
  </defs>
  <g id="Layer_1" data-name="Layer 1">
    <path class="cls-1" d="m207.91,39.94c5.45,2.28,10.59,5.06,15.67,8.12-3.26-7.84-6.48-16.04-9.63-24.17-1.93,5.59-3.77,10.63-6.03,16.05"/>
    <path class="cls-1" d="m244.43.26h-61.23c-4.28,0-7.77,3.5-7.77,7.77v61.23c0,4.28,3.5,7.77,7.77,7.77h61.23c4.28,0,7.77-3.5,7.77-7.77V8.03c0-4.27-3.5-7.77-7.77-7.77m-39.18,45.92c-3.2,6.88-6.51,15.25-14.27,17.92,2.91-7.26,5.21-13.38,8.07-20.66-2.2-1.4-4.54-4.63-4.25-8.93,1.91,1.19,4.38,2.45,6.62,3.02,2.79-7.09,5.57-14,8.46-21.05,1.59-4.61,6.52-4.61,8.12,0,6.5,15.81,12.55,31.76,18.9,47.62-10.15-7.25-20.31-12.62-31.65-17.92"/>
    <path class="cls-2" d="m87.92,66.33c0-.65.18-1.27.53-1.85.36-.58.88-1.04,1.57-1.39.69-.34,1.5-.52,2.42-.52.78,0,1.46.1,2.05.3.58.2,1.08.48,1.47.84.39.36.68.76.87,1.21.19.45.28.92.28,1.43,0,.64-.17,1.21-.5,1.72-.33.5-.82.91-1.48,1.23.56.21,1.01.5,1.38.85.37.35.64.76.83,1.22.19.46.28.97.28,1.53,0,.82-.2,1.57-.6,2.24-.4.67-.98,1.19-1.75,1.57-.77.38-1.68.57-2.73.57s-2.01-.19-2.78-.57c-.77-.38-1.35-.9-1.74-1.56-.39-.66-.59-1.4-.59-2.23,0-1.76.83-2.96,2.49-3.62-1.34-.63-2.01-1.62-2.01-2.97m7.02,6.49c0-.51-.1-.95-.31-1.33-.21-.38-.5-.67-.88-.87-.38-.2-.8-.3-1.27-.3-.66,0-1.22.22-1.68.67-.45.44-.68,1.06-.68,1.86,0,.51.11.96.32,1.35.21.39.5.69.87.9.37.21.78.32,1.23.32s.87-.11,1.23-.32c.36-.21.65-.52.86-.91.21-.39.31-.84.31-1.35m-2.45-8.37c-.62,0-1.11.19-1.49.57-.37.38-.56.87-.56,1.48,0,.55.19,1.02.58,1.39.39.37.88.55,1.49.55.3,0,.59-.05.84-.15.25-.1.47-.24.64-.41.18-.17.32-.38.42-.62.1-.24.15-.5.15-.79,0-.38-.09-.73-.26-1.04-.17-.31-.41-.55-.73-.73-.31-.18-.67-.27-1.08-.27m8.04-1.63h6.53c.63,0,1.08.1,1.36.29.28.19.42.52.42.97,0,.27-.17.64-.5,1.09-.33.45-.71.95-1.13,1.5-.42.54-.86,1.22-1.31,2.03-.44.81-.86,1.8-1.23,2.97-.16.52-.27.95-.33,1.29-.06.34-.14.78-.21,1.32-.08.54-.15.96-.21,1.24-.14.66-.33,1.13-.58,1.38-.25.26-.59.39-1.01.39s-.72-.14-.96-.42c-.24-.28-.36-.68-.36-1.23,0-.42.09-.99.26-1.71.18-.72.46-1.58.86-2.58.4-1,.9-2.03,1.49-3.09.6-1.05,1.31-2.1,2.13-3.15h-5.25c-.55,0-.96-.1-1.23-.3-.27-.2-.41-.51-.41-.94,0-.45.14-.74.43-.87.29-.13.69-.2,1.2-.2m7.77,14.47c-.41,0-.75-.13-1.05-.39-.29-.26-.44-.63-.44-1.1,0-.4.14-.74.42-1.03.28-.29.63-.43,1.04-.43s.76.14,1.05.43c.29.28.44.63.44,1.04,0,.46-.14.83-.44,1.09-.29.26-.63.4-1.03.4m6.97-14.47h6.53c.62,0,1.08.1,1.36.29.28.19.42.52.42.97,0,.27-.16.64-.5,1.09-.33.45-.71.95-1.13,1.5-.42.54-.86,1.22-1.3,2.03-.45.81-.86,1.8-1.23,2.97-.16.52-.27.95-.33,1.29-.06.34-.14.78-.21,1.32-.08.54-.15.96-.21,1.24-.14.66-.33,1.13-.58,1.38-.25.26-.59.39-1.01.39s-.72-.14-.96-.42c-.24-.28-.36-.68-.36-1.23,0-.42.09-.99.26-1.71.18-.72.46-1.58.86-2.58.4-1,.9-2.03,1.5-3.09.59-1.05,1.31-2.1,2.13-3.15h-5.25c-.55,0-.96-.1-1.23-.3-.27-.2-.41-.51-.41-.94,0-.45.14-.74.43-.87.29-.13.69-.2,1.2-.2m23.57,2.11h-5.73v3.68h4.79c.44,0,.78.1.99.3.22.2.33.47.33.8s-.11.6-.33.79c-.22.2-.55.29-.99.29h-4.79v4.73c0,.6-.14,1.05-.41,1.34-.27.29-.62.44-1.04.44s-.78-.15-1.05-.44c-.27-.29-.41-.74-.41-1.33v-11.06c0-.42.06-.76.19-1.02.12-.26.32-.46.58-.58.26-.12.6-.18,1.01-.18h6.86c.46,0,.81.1,1.03.31.22.21.34.47.34.81s-.11.61-.34.82c-.22.2-.57.31-1.03.31m9.53,9.96l-2.3-9.15v9.92c0,.55-.12.96-.37,1.23-.25.27-.57.41-.98.41s-.71-.14-.96-.41c-.25-.27-.37-.68-.37-1.24v-11.37c0-.63.16-1.05.49-1.27.33-.22.77-.33,1.33-.33h.9c.54,0,.93.05,1.18.15.25.1.43.27.54.53.12.25.25.67.4,1.25l2.09,7.87,2.09-7.87c.15-.58.29-.99.4-1.25.12-.25.3-.43.55-.53.24-.1.64-.15,1.18-.15h.9c.55,0,1,.11,1.32.33.33.22.49.64.49,1.27v11.37c0,.55-.12.96-.37,1.23-.24.27-.57.41-.98.41-.39,0-.7-.14-.95-.41-.25-.27-.37-.69-.37-1.23v-9.92l-2.3,9.15c-.15.6-.28,1.03-.37,1.31-.09.28-.27.53-.53.76-.25.23-.61.35-1.06.35-.34,0-.63-.07-.86-.22-.23-.15-.42-.33-.55-.56-.13-.23-.23-.48-.31-.76-.07-.28-.15-.57-.23-.87"/>
    <path class="cls-1" d="m8.24,32.85L0,55.98h3.45l2.72-7.63h8.71l2.72,7.63h3.45l-8.24-23.13c-.81-2.29-3.75-2.29-4.56,0m-.9,12.19l3.18-8.92,3.18,8.92h-6.36Zm46.13-12.19l-8.24,23.13h3.45l2.72-7.63h8.71l2.72,7.63h3.45l-8.24-23.13c-.81-2.29-3.75-2.29-4.56,0m-.89,12.19l3.18-9.89,3.18,9.89h-6.35Zm20.31-13.9h5c14.96,0,14.22,24.84,0,24.84h-5c-2.04,0-3.71-1.67-3.71-3.71v-17.41c0-2.04,1.67-3.71,3.71-3.71m.23,3.44h4.4c10.5,0,10.33,17.96,0,17.96h-4.4c-.27,0-.5-.22-.5-.5v-16.97c0-.27.22-.5.5-.5m24.1-3.44h11.3c.95,0,1.72.77,1.72,1.72s-.78,1.72-1.72,1.72h-9.64s-.1,0-.14,0h-1.28c-.27,0-.5.22-.5.5v6.25h10.39c.95,0,1.72.77,1.72,1.72s-.77,1.72-1.72,1.72h-10.39v7.27c0,.27.22.5.5.5h11.07c.95,0,1.72.77,1.72,1.72s-.78,1.72-1.72,1.72h-11.3c-2.04,0-3.71-1.67-3.71-3.71v-17.41c0-2.04,1.67-3.71,3.71-3.71m47.24,1.72l-8.24,23.13h3.45l2.72-7.63h8.71l2.72,7.63h3.45l-8.24-23.13c-.81-2.29-3.75-2.29-4.56,0m-.9,12.19l3.18-8.92,3.18,8.92h-6.36ZM25.79,31.13h0c.95,0,1.72.78,1.72,1.72v9.57l10.77-10.79c.67-.67,1.77-.67,2.44,0,.67.67.67,1.77,0,2.44l-7.6,7.61,9.82,14.3h-4.18l-8.12-11.82-3.13,3.14v8.68h-3.45v-23.13c0-.95.77-1.72,1.72-1.72m101.73-.06c7.87-.05,7.92,13.74,1.05,14.07l5.91,10.84h-3.93l-5.89-10.8-5.27.03c-.09,0-.18,0-.27,0v10.78h-3.45v-23.13c0-.95.77-1.72,1.72-1.72,3.37,0,6.75-.04,10.12-.06m-7.9,3.5h6.77c5.06,0,4.64,7.54,0,7.54h-6.77c-.27,0-.5-.22-.5-.5v-6.55c0-.27.22-.5.5-.5"/>
    <path class="cls-1" d="m78.09,2.08l-7.98,22.41h3.34l2.63-7.39h8.44l2.63,7.39h3.34l-7.98-22.41c-.79-2.22-3.63-2.22-4.42,0m-.87,11.81l3.08-9.59,3.08,9.59h-6.16ZM98.44.42h4.84c14.5,0,13.78,24.07,0,24.07h-4.84c-1.98,0-3.6-1.62-3.6-3.6V4.02c0-1.98,1.62-3.6,3.6-3.6m.22,3.34h4.27c10.18,0,10.01,17.41,0,17.41h-4.27c-.27,0-.48-.22-.48-.48V4.23c0-.26.22-.48.48-.48M60.72.41c7.62-.05,7.67,13.31,1.02,13.64l5.73,10.5h-3.81l-5.71-10.47-5.11.03c-.09,0-.17,0-.26,0v10.44h-3.34V2.14c0-.92.75-1.67,1.67-1.67,3.27,0,6.54-.04,9.81-.06m-7.66,3.39h6.56c4.91,0,4.5,7.31,0,7.31h-6.56c-.26,0-.48-.22-.48-.48v-6.35c0-.26.22-.48.48-.48M122.94.41h0c.92,0,1.67.75,1.67,1.67v22.41h-3.34V2.08c0-.92.75-1.67,1.67-1.67m21.61-.41c6.99,0,12.7,5.6,12.7,12.46s-5.7,12.46-12.7,12.46-12.7-5.6-12.7-12.46,5.7-12.46,12.7-12.46m0,3.47c5.04,0,9.16,4.03,9.16,8.98s-4.11,8.98-9.16,8.98-9.16-4.03-9.16-8.98,4.11-8.98,9.16-8.98"/>
  </g>
</svg>